<?xml version="1.0" encoding="UTF-8"?>
<svg xmlns="http://www.w3.org/2000/svg" xmlns:xlink="http://www.w3.org/1999/xlink" viewBox="0 0 280.43 131.73">
  <defs>
    <style>
      .cls-1 {
        fill: #cd587c;
      }

      .cls-1, .cls-2, .cls-3, .cls-4, .cls-5, .cls-6, .cls-7 {
        stroke-width: 0px;
      }

      .cls-2 {
        fill: #4774c0;
      }

      .cls-3 {
        fill: #e4769a;
      }

      .cls-4 {
        fill: none;
      }

      .cls-5 {
        fill: #fff;
      }

      .cls-6 {
        fill: #b43d5f;
      }

      .cls-7 {
        fill: #fb9ebf;
      }

      .cls-8 {
        clip-path: url(#clippath);
      }
    </style>
    <clipPath id="clippath">
      <path id="Text" class="cls-4" d="m234.11,72.01c-.31,1.54-.85,2.89-1.63,4.06-.78,1.17-1.76,2.1-2.94,2.8-1.18.7-2.53,1.15-4.05,1.35-1.52.2-3.18.12-4.98-.23s-3.36-.92-4.69-1.69-2.41-1.7-3.23-2.8c-.82-1.1-1.37-2.33-1.64-3.71-.28-1.37-.26-2.83.05-4.37l3.25-16.35c.32,0,.84.03,1.55.06.7.04,1.37.12,2,.24s1.22.3,1.7.49c.48.2.86.46,1.16.79s.48.73.56,1.22c.08.49.05,1.11-.1,1.85l-2.6,13.06c-.27,1.37-.11,2.52.5,3.44.6.92,1.5,1.5,2.7,1.74s2.29.05,3.18-.57c.89-.62,1.48-1.62,1.75-2.99l3.23-16.23c.32,0,.84.03,1.55.06.7.04,1.37.12,2,.24s1.22.3,1.7.49c.48.2.86.46,1.16.79s.48.73.56,1.22c.08.49.05,1.11-.1,1.85l-2.62,13.19Zm11.05,11.99c-.33.02-.84.01-1.53-.04-.69-.05-1.36-.14-2.02-.27s-1.23-.3-1.7-.49c-.48-.2-.86-.46-1.16-.79s-.48-.73-.56-1.22c-.08-.49-.05-1.11.1-1.85l4.5-22.6c.33,0,.84.03,1.55.06.7.04,1.37.12,2,.24s1.22.3,1.7.49c.48.2.86.46,1.16.79s.48.73.56,1.22c.08.49.05,1.11-.1,1.85l-4.5,22.6Zm-171.4,6.55c-.83-1.73-1.99-3.19-3.47-4.39-1.49-1.2-3.26-2.13-5.33-2.79-2.06-.66-4.33-.99-6.8-.99s-5.01.38-7.25,1.15-4.19,1.86-5.85,3.28c-1.66,1.42-2.96,3.15-3.91,5.2-.95,2.05-1.42,4.35-1.42,6.89,0,2.78.49,5.16,1.48,7.13.98,1.97,2.26,3.57,3.82,4.81,1.56,1.24,3.29,2.14,5.2,2.72,1.91.58,3.79.86,5.63.86,1.08,0,1.98-.07,2.7-.22.72-.14,1.29-.35,1.71-.61.42-.26.71-.59.88-.97.17-.38.25-.83.25-1.33,0-.34-.07-.7-.2-1.08-.13-.38-.28-.71-.45-.97-.53.07-1.13.16-1.82.25-.68.1-1.57.14-2.65.14-1.56,0-2.99-.25-4.3-.74-1.31-.49-2.44-1.21-3.4-2.14-.96-.94-1.71-2.06-2.25-3.38-.54-1.32-.81-2.81-.81-4.46s.31-3.28.92-4.73c.61-1.45,1.48-2.71,2.59-3.78,1.12-1.07,2.45-1.9,4.01-2.5,1.56-.6,3.28-.9,5.15-.9,1.61,0,3.09.23,4.45.68,1.36.46,2.52,1.09,3.49,1.91.97.82,1.73,1.79,2.29,2.93.55,1.14.83,2.39.83,3.76,0,1.63-.31,2.96-.94,3.98-.62,1.02-1.48,1.53-2.56,1.53-.12,0-.28-.01-.47-.04-.19-.02-.34-.06-.43-.11l.76-6.48c.02-.12.04-.25.04-.4v-.32c0-.96-.47-1.76-1.4-2.41-.77-.55-1.67-.97-2.7-1.26-1.03-.29-2.12-.43-3.28-.43-1.25,0-2.42.19-3.51.58-1.09.38-2.05.95-2.88,1.69-.83.74-1.48,1.66-1.96,2.75-.48,1.09-.72,2.36-.72,3.8,0,1.15.19,2.17.56,3.06.37.89.88,1.63,1.53,2.23.65.6,1.42,1.05,2.3,1.35.89.3,1.85.45,2.88.45s1.89-.11,2.65-.32c.76-.22,1.39-.47,1.89-.76.7.43,1.48.75,2.36.95.88.2,1.67.31,2.39.31,2.95,0,5.23-.88,6.84-2.65,1.61-1.76,2.41-4.25,2.41-7.47,0-2.11-.41-4.03-1.24-5.76Zm-14.42,10.55c-.24.14-.49.27-.76.38-.26.11-.61.16-1.04.16-.77,0-1.34-.22-1.73-.67-.38-.44-.58-1.06-.58-1.85,0-.7.08-1.3.25-1.8.17-.5.39-.92.67-1.24.28-.32.59-.56.95-.72.36-.16.73-.23,1.12-.23.43,0,.78.04,1.04.11.26.07.47.16.61.25l-.54,5.62Zm32.6,12.12c-.4.26-.99.46-1.78.6-.79.13-1.63.14-2.53.03-1.08-.14-1.98-.41-2.71-.83-.73-.42-1.2-.93-1.41-1.53-.21-.63-.46-1.43-.75-2.42-.29-.99-.59-2.09-.89-3.3-.3-1.21-.61-2.49-.92-3.85-.31-1.36-.6-2.73-.86-4.12-.27-1.39-.51-2.75-.73-4.08-.22-1.33-.4-2.58-.54-3.74.4-.31.97-.57,1.68-.78.72-.21,1.46-.26,2.23-.17.95.12,1.7.42,2.25.89.55.47.9,1.27,1.05,2.38.37,2.6.77,5.1,1.18,7.48s.85,4.87,1.3,7.46l.23.03c1-2.32,2.05-4.86,3.14-7.62s2.15-5.5,3.18-8.24c.49-.17,1.01-.3,1.55-.39.55-.09,1.15-.09,1.82,0,.95.12,1.73.43,2.34.94.61.51.86,1.25.73,2.22-.07.56-.31,1.37-.72,2.41s-.91,2.21-1.5,3.5c-.59,1.29-1.25,2.64-1.96,4.03-.71,1.4-1.41,2.71-2.1,3.94-.69,1.23-1.33,2.31-1.92,3.24-.59.93-1.05,1.57-1.38,1.92Zm29.9-12.67l-1.64-7.02c-.23-.98-.61-1.79-1.13-2.43-.52-.64-1.17-1.12-1.94-1.43-.77-.32-1.64-.48-2.63-.49-.98-.01-2.04.11-3.17.38-.73.17-1.5.41-2.3.7-.8.3-1.48.63-2.03,1-.49.36-.83.73-1.01,1.11-.19.39-.22.85-.09,1.39.1.42.29.8.56,1.14.28.34.58.58.89.7.55-.39,1.18-.76,1.89-1.1.71-.34,1.47-.61,2.26-.79,1-.23,1.8-.28,2.4-.15.59.14.96.51,1.1,1.11l.05.22-4,1.4c-1.75.61-2.97,1.4-3.65,2.37-.68.97-.85,2.18-.51,3.62.2.86.55,1.57,1.04,2.14.5.57,1.11.99,1.85,1.26.74.27,1.57.4,2.51.41.94,0,1.96-.13,3.07-.39,2.47-.58,4.28-1.43,5.45-2.56.36-.35.65-.73.87-1.15.22-.42.27-.9.14-1.44Zm-6.23.88c-.41.17-.8.3-1.15.38-.77.18-1.35.18-1.74,0-.39-.19-.63-.49-.72-.91-.1-.42.02-.78.34-1.07.33-.3.78-.53,1.35-.71l2.21-.72.59,2.51c-.18.17-.48.35-.89.52Zm27.93-2.72c0,2.31-.86,4.11-2.6,5.42s-4.28,1.96-7.65,1.96c-1.28,0-2.46-.09-3.55-.27-1.09-.18-2.03-.46-2.8-.84-.77-.38-1.38-.86-1.82-1.43-.44-.58-.66-1.26-.66-2.05,0-.73.15-1.34.46-1.84.3-.5.67-.92,1.09-1.25.88.49,1.89.92,3.03,1.3,1.14.38,2.45.57,3.94.57.94,0,1.66-.14,2.16-.41.5-.27.75-.64.75-1.09,0-.43-.18-.76-.55-1-.36-.24-.97-.44-1.82-.59l-1.37-.27c-2.64-.52-4.61-1.33-5.9-2.44-1.29-1.11-1.94-2.69-1.94-4.76,0-1.12.24-2.14.73-3.05.48-.91,1.17-1.67,2.05-2.28.88-.61,1.94-1.08,3.17-1.41,1.23-.33,2.59-.5,4.08-.5,1.12,0,2.18.08,3.17.25.99.17,1.84.42,2.57.75s1.31.77,1.73,1.3c.42.53.64,1.16.64,1.89s-.13,1.3-.39,1.8c-.26.5-.58.92-.98,1.25-.24-.15-.61-.31-1.09-.48-.49-.17-1.02-.32-1.59-.46-.58-.14-1.16-.25-1.75-.34-.59-.09-1.13-.14-1.62-.14-1,0-1.78.11-2.32.34-.55.23-.82.58-.82,1.07,0,.33.15.61.46.82.3.21.88.41,1.73.59l1.41.32c2.92.67,4.99,1.59,6.22,2.76,1.23,1.17,1.84,2.68,1.84,4.53Zm14.49,3.54c-.09.95.15,1.65.72,2.1.57.46,1.39.73,2.49.83.55.05,1.12.05,1.71.02.59-.04,1.11-.11,1.56-.22.29.43.53.9.73,1.42.19.51.26,1.12.2,1.81-.12,1.39-.75,2.47-1.86,3.25-1.12.78-2.99,1.05-5.61.82-3.21-.29-5.61-1.24-7.21-2.85-1.6-1.61-2.25-4.06-1.96-7.34l2.11-23.39c.41-.07,1-.14,1.75-.2.76-.06,1.56-.05,2.39.02,1.6.14,2.83.54,3.67,1.18.84.65,1.18,1.88,1.02,3.7l-.32,3.5,7.16.65c.18.42.35.94.49,1.56.15.62.19,1.29.12,2.02-.12,1.28-.48,2.17-1.1,2.68-.62.51-1.4.73-2.34.64l-4.97-.45-.74,8.25Zm27.24,3.4c0,1.82-.68,3.25-2.05,4.28s-3.38,1.55-6.05,1.55c-1.01,0-1.94-.07-2.81-.22-.86-.14-1.6-.37-2.21-.67-.61-.3-1.09-.68-1.44-1.13-.35-.46-.52-1-.52-1.62,0-.58.12-1.06.36-1.46.24-.4.53-.73.86-.99.7.38,1.49.73,2.39,1.03.9.3,1.94.45,3.11.45.74,0,1.31-.11,1.71-.32.4-.22.59-.5.59-.86,0-.34-.14-.6-.43-.79-.29-.19-.77-.35-1.44-.47l-1.08-.22c-2.09-.41-3.64-1.05-4.66-1.93-1.02-.88-1.53-2.13-1.53-3.76,0-.89.19-1.69.58-2.41.38-.72.92-1.32,1.62-1.8.7-.48,1.53-.85,2.5-1.12.97-.26,2.05-.4,3.22-.4.89,0,1.72.07,2.5.2.78.13,1.46.33,2.03.59s1.03.61,1.37,1.03c.34.42.5.92.5,1.49s-.1,1.03-.31,1.42c-.2.4-.46.73-.77.99-.19-.12-.48-.25-.86-.38-.38-.13-.8-.25-1.26-.36-.46-.11-.92-.2-1.39-.27-.47-.07-.89-.11-1.28-.11-.79,0-1.4.09-1.84.27-.43.18-.65.46-.65.85,0,.26.12.48.36.65.24.17.7.32,1.37.47l1.12.25c2.3.53,3.94,1.25,4.91,2.18.97.92,1.46,2.12,1.46,3.58Zm22.37-.12c.46-.43.68-1.06.68-1.87,0-1.1-.21-2.12-.63-3.06-.42-.94-1.01-1.74-1.76-2.41-.76-.67-1.66-1.2-2.7-1.58-1.04-.38-2.2-.58-3.47-.58-1.13,0-2.23.17-3.31.52-1.08.35-2.04.89-2.88,1.62-.84.73-1.52,1.67-2.03,2.81-.52,1.14-.77,2.5-.77,4.09s.26,3.01.77,4.21c.52,1.2,1.22,2.2,2.12,2.99.9.79,1.96,1.39,3.17,1.78,1.21.4,2.53.59,3.94.59.84,0,1.74-.07,2.7-.22.96-.14,1.82-.42,2.59-.83,1.01-.53,1.51-1.33,1.51-2.41,0-.48-.13-.94-.4-1.37-.26-.43-.59-.77-.97-1.01-.55.34-1.27.63-2.14.88-.88.25-1.81.38-2.79.38-1.06,0-1.99-.2-2.81-.59s-1.36-.99-1.62-1.78l8.89-1.33c.82-.12,1.45-.4,1.91-.83Zm-11.23-1.87c.02-.38.1-.76.23-1.13.13-.37.33-.71.59-1.01.26-.3.61-.55,1.03-.74.42-.19.92-.29,1.49-.29.89,0,1.56.24,2.02.72.46.48.72.96.79,1.44l-6.16,1.01Zm31.96-11.28c-.37-.85-.91-1.56-1.64-2.14-.73-.58-1.62-1.03-2.67-1.34-1.05-.32-2.23-.51-3.52-.58-.84-.04-1.73-.03-2.69.04-.95.07-1.78.22-2.49.45-.64.23-1.11.53-1.43.88-.32.36-.49.85-.53,1.47-.02.48.06.95.25,1.4.19.45.44.8.74,1.03.71-.25,1.5-.45,2.37-.6.87-.15,1.76-.2,2.68-.15,1.15.06,2.02.25,2.62.58.6.33.88.84.84,1.54v.25s-4.75.26-4.75.26c-2.07.11-3.62.58-4.65,1.42-1.03.84-1.58,2.08-1.67,3.74-.05.98.1,1.86.46,2.62.36.76.89,1.4,1.6,1.92.71.52,1.56.92,2.57,1.21,1.01.29,2.14.47,3.42.54,2.83.14,5.05-.21,6.65-1.07.49-.26.92-.58,1.29-.96.37-.38.57-.88.6-1.5l.41-8.05c.06-1.13-.1-2.11-.46-2.96Zm-5.8,9.74c-.25.13-.62.23-1.11.29-.5.06-.95.08-1.35.06-.89-.05-1.51-.23-1.86-.55-.36-.32-.52-.72-.5-1.2.02-.48.26-.83.7-1.05.44-.22,1-.33,1.68-.35l2.6-.08-.15,2.88Z"/>
    </clipPath>
  </defs>
  <g id="Logo-export">
    <g id="Logo">
      <path id="BG-Color" class="cls-6" d="m280.42,35.23c.07,3.18-.48,5.92-1.68,8.35-1.34,2.71-3.41,4.96-6,6.53l-10.51,6.43c1.3,1.8,2.18,3.9,2.56,6.16.31,1.94.26,3.95-.18,6.13l-4.5,22.6-1.79,8.99-9.13.64c-.4.03-.8.04-1.23.04-.58,0-1.23-.02-1.97-.07-.66-.05-1.32-.12-1.98-.22v.23l-.41,8.06c-.18,3.51-1.6,6.8-3.99,9.26-1.23,1.26-2.66,2.33-4.25,3.18-3.12,1.66-6.86,2.51-11.1,2.51-.59,0-1.19-.02-1.8-.05-.61-.03-1.2-.08-1.78-.15-1.36,2.25-3.34,4.13-5.82,5.45-1.97,1.03-4.13,1.74-6.43,2.08-1.54.23-3.05.35-4.48.35-2.67,0-5.25-.4-7.66-1.19-2.49-.81-4.73-2.05-6.7-3.65-2.7,1.12-5.78,1.69-9.23,1.69-1.66,0-3.27-.13-4.78-.38-1.22-.21-2.38-.51-3.48-.9-2.62,1.42-5.72,2.14-9.25,2.14-.88,0-1.82-.04-2.78-.13-6.09-.55-11.02-2.68-14.66-6.35-.26-.27-.52-.56-.79-.86-2.45.71-5.17,1.07-8.14,1.07-1.93,0-3.79-.14-5.52-.43-1.96-.33-3.77-.87-5.41-1.6-1.32.53-2.73.97-4.27,1.33-1.98.47-3.93.7-5.8.7-2.34,0-4.57-.38-6.62-1.13-.48-.18-.93-.39-1.38-.6-.28.47-.57.93-.84,1.36-1.04,1.65-1.91,2.81-2.81,3.76l-.95,1.01-1.16.76c-1.81,1.19-3.89,1.98-6.35,2.4-1.09.18-2.21.28-3.35.28-.89,0-1.8-.06-2.71-.18-2.65-.33-5.07-1.12-7.17-2.33-2.63-1.5-4.64-3.6-5.95-6.11-.31.1-.62.21-.95.3-1.14,2.51-3.01,4.63-5.42,6.15-1.65,1.04-3.59,1.79-5.73,2.22-1.51.3-3.17.45-5.06.45-3.01,0-6.07-.47-9.1-1.38-3.35-1.01-6.45-2.63-9.19-4.8-2.94-2.33-5.32-5.31-7.09-8.84-1.82-3.64-2.75-7.85-2.75-12.5,0-.73.04-1.44.09-2.15-1.51.29-2.94.46-4.43.46-1.31,0-2.61-.14-3.85-.41-4.12-.9-7.78-3.05-10.58-6.2-3.17-3.56-4.18-7.41-5.57-12.73l-1.59-6.08c-1.39-5.33-2.4-9.17-1.38-13.83.9-4.12,3.05-7.78,6.2-10.59,3.56-3.17,7.41-4.17,12.73-5.57l6.08-1.58c3.97-1.04,6.84-1.79,9.98-1.79,1.32,0,2.61.14,3.85.41.1.02.19.04.29.06,1.17-3.79,2.88-7.26,5.11-10.35,2.92-4.05,6.64-7.42,11.06-10.04,4.2-2.49,8.92-4.24,14.05-5.19,2.77-.52,5.55-.78,8.25-.78,2.26,0,4.53.18,6.72.55,5.04.84,9.72,2.63,13.92,5.33,4.27,2.74,7.92,6.44,10.86,10.98.55.87,1.08,1.76,1.57,2.69,3.72.06,7.18,1.12,10.02,3.08.12.08.23.17.35.25.2-.07.41-.13.61-.2,1.97-.6,4.11-.9,6.54-.9,2.28,0,4.44.31,6.45.92l.15-.09c1.78-1.09,3.7-1.89,5.71-2.4,1.1-.27,2.21-.46,3.34-.57.46-1.02.95-2.02,1.49-2.98,2.66-4.74,6.07-8.68,10.15-11.71,4.05-3,8.66-5.11,13.7-6.28,3.04-.7,6.21-1.06,9.43-1.06,1.86,0,3.77.12,5.68.36,5.23.64,10.1,2.11,14.49,4.35,2.5,1.28,4.81,2.8,6.91,4.54.79-.73,1.65-1.38,2.58-1.94l11.54-7.06,4.25-2.6,3.97.96,1.83-7.22,7.84-1.21c.78-.13,1.55-.21,2.32-.26.53-.03,1.03-.05,1.47-.06.15,0,.3-.01.45-.01,3.47,0,6.71.97,9.37,2.8,2.33,1.61,4.06,3.84,5.11,6.43.11.04.23.07.34.12.97.4,2.04.92,3.27,1.58l.04.02.05.03,9.29,5.08,2.1,1.15,1.5,1.88c1.68,2.09,3.71,5.71,3.82,11.05Z"/>
      <path id="BG-White" class="cls-5" d="m277.25,30.14c.07,3.18-.48,5.92-1.68,8.35-1.34,2.71-3.41,4.96-6,6.53l-10.51,6.43c1.3,1.8,2.18,3.9,2.56,6.16.31,1.94.26,3.95-.18,6.13l-4.5,22.6-1.79,8.99-9.13.64c-.4.03-.8.04-1.23.04-.58,0-1.23-.02-1.97-.07-.66-.05-1.32-.12-1.98-.22v.23l-.41,8.06c-.18,3.51-1.6,6.8-3.99,9.26-1.23,1.26-2.66,2.33-4.25,3.18-3.12,1.66-6.86,2.51-11.1,2.51-.59,0-1.19-.02-1.8-.05-.61-.03-1.2-.08-1.78-.15-1.36,2.25-3.34,4.13-5.82,5.45-1.97,1.03-4.13,1.74-6.43,2.08-1.54.23-3.05.35-4.48.35-2.67,0-5.25-.4-7.66-1.19-2.49-.81-4.73-2.05-6.7-3.65-2.7,1.12-5.78,1.69-9.23,1.69-1.66,0-3.27-.13-4.78-.38-1.22-.21-2.38-.51-3.48-.9-2.62,1.42-5.72,2.14-9.25,2.14-.88,0-1.82-.04-2.78-.13-6.09-.55-11.02-2.68-14.66-6.35-.26-.27-.52-.56-.79-.86-2.45.71-5.17,1.07-8.14,1.07-1.93,0-3.79-.14-5.52-.43-1.96-.33-3.77-.87-5.41-1.6-1.32.53-2.73.97-4.27,1.33-1.98.47-3.93.7-5.8.7-2.34,0-4.57-.38-6.62-1.13-.48-.18-.93-.39-1.38-.6-.28.47-.57.93-.84,1.36-1.04,1.65-1.91,2.81-2.81,3.76l-.95,1.01-1.16.76c-1.81,1.19-3.89,1.98-6.35,2.4-1.09.18-2.21.28-3.35.28-.89,0-1.8-.06-2.71-.18-2.65-.33-5.07-1.12-7.17-2.33-2.63-1.5-4.64-3.6-5.95-6.11-.31.1-.62.21-.95.3-1.14,2.51-3.01,4.63-5.42,6.15-1.65,1.04-3.59,1.79-5.73,2.22-1.51.3-3.17.45-5.06.45-3.01,0-6.07-.47-9.1-1.38-3.35-1.01-6.45-2.63-9.19-4.8-2.94-2.33-5.32-5.31-7.09-8.84-1.82-3.64-2.75-7.85-2.75-12.5,0-.73.04-1.44.09-2.15-1.51.29-2.94.46-4.43.46-1.31,0-2.61-.14-3.85-.41-4.12-.9-7.78-3.05-10.58-6.2-3.17-3.56-4.18-7.41-5.57-12.73l-1.59-6.08c-1.39-5.33-2.4-9.17-1.38-13.83.9-4.12,3.05-7.78,6.2-10.59,3.56-3.17,7.41-4.17,12.73-5.57l6.08-1.58c3.97-1.04,6.84-1.79,9.98-1.79,1.32,0,2.61.14,3.85.41.1.02.19.04.29.06,1.17-3.79,2.88-7.26,5.11-10.35,2.92-4.05,6.64-7.42,11.06-10.04,4.2-2.49,8.92-4.24,14.05-5.19,2.77-.52,5.55-.78,8.25-.78,2.26,0,4.53.18,6.72.55,5.04.84,9.72,2.63,13.92,5.33,4.27,2.74,7.92,6.44,10.86,10.98.55.87,1.08,1.76,1.57,2.69,3.72.06,7.18,1.12,10.02,3.08.12.08.23.17.35.25.2-.07.41-.13.61-.2,1.97-.6,4.11-.9,6.54-.9,2.28,0,4.44.31,6.45.92l.15-.09c1.78-1.09,3.7-1.89,5.71-2.4,1.1-.27,2.21-.46,3.34-.57.46-1.02.95-2.02,1.49-2.98,2.66-4.74,6.07-8.68,10.15-11.71,4.05-3,8.66-5.11,13.7-6.28,3.04-.7,6.21-1.06,9.43-1.06,1.86,0,3.77.12,5.68.36,5.23.64,10.1,2.11,14.49,4.35,2.5,1.28,4.81,2.8,6.91,4.54.79-.73,1.65-1.38,2.58-1.94l11.54-7.06,4.25-2.6,3.97.96,1.83-7.22,7.84-1.21c.78-.13,1.55-.21,2.32-.26.53-.03,1.03-.05,1.47-.06.15,0,.3-.01.45-.01,3.47,0,6.71.97,9.37,2.8,2.33,1.61,4.06,3.84,5.11,6.43.11.04.23.07.34.12.97.4,2.04.92,3.27,1.58l.04.02.05.03,9.29,5.08,2.1,1.15,1.5,1.88c1.68,2.09,3.71,5.71,3.82,11.05Z"/>
      <path id="Line" class="cls-1" d="m180.93,84.4c-13.41,0-26.25-5.25-52.12-19.56-31.04-17.16-78.8-22.4-91.55-3.17l-3.33-2.21c14.12-21.28,63.64-16.47,96.82,1.88,40.32,22.29,48.55,21.54,73.65,15.16,6.19-1.57,10.77-4.88,13.62-9.83,6.7-11.66,1.95-28.71,1.9-28.88l3.85-1.1c.22.76,5.26,18.86-2.28,31.98-3.4,5.92-8.82,9.86-16.1,11.71-9.75,2.48-17.18,4.02-24.44,4.02Z"/>
      <g id="QwQ">
        <path class="cls-7" d="m112.3,76.21c-.04-.22-.09-.46-.13-.71-.05-.25-.13-.54-.25-.87-1.24-.12-2.57-.26-3.99-.43-1.42-.17-2.81-.36-4.15-.57-1.34-.21-2.63-.43-3.87-.67-1.23-.23-2.31-.47-3.22-.7,3.07-2.83,5.25-6.36,6.55-10.57,1.3-4.21,1.44-9.07.41-14.56-.82-4.37-2.23-8.11-4.23-11.21-2-3.11-4.42-5.57-7.25-7.39-2.83-1.82-5.97-3.02-9.41-3.59-3.44-.58-7.04-.51-10.79.19-3.75.7-7.13,1.94-10.13,3.72-3,1.78-5.48,4.02-7.44,6.74-1.96,2.71-3.31,5.88-4.05,9.5-.75,3.62-.71,7.61.11,11.98.81,4.32,2.2,8.03,4.17,11.14,1.97,3.11,4.35,5.6,7.13,7.45,2.78,1.86,5.91,3.09,9.39,3.68,3.47.6,7.12.54,10.93-.17l.67-.13,4.34,2.76c3.36,2.16,6.55,3.69,9.56,4.61,3.01.92,5.81,1.13,8.39.65,2.69-.5,4.72-1.64,6.11-3.4,1.38-1.77,1.77-4.24,1.18-7.44Zm-24.76-14.25c-1.6,2.91-4.17,4.69-7.7,5.35-3.47.65-6.48-.09-9.03-2.23-2.54-2.13-4.29-5.75-5.25-10.85-.95-5.1-.61-9.09,1.02-11.98,1.64-2.89,4.19-4.65,7.66-5.3,3.53-.66,6.55.08,9.07,2.22,2.52,2.14,4.25,5.73,5.19,10.77.95,5.1.63,9.1-.97,12.01Z"/>
        <path class="cls-7" d="m124.2,73.96c-.58.5-1.37.9-2.36,1.21-.99.31-2.17.47-3.54.47-1.7,0-3.17-.24-4.41-.71s-2.07-1.15-2.48-2.02c-.46-.99-.98-2.57-1.58-4.72-.6-2.15-1.19-4.51-1.77-7.08-.58-2.57-1.13-5.17-1.65-7.83-.52-2.65-.92-4.99-1.21-7.02.58-.58,1.36-1.09,2.33-1.52.97-.43,2.04-.65,3.2-.65,1.45,0,2.64.32,3.57.96.93.64,1.5,1.75,1.71,3.32.41,3.15.77,5.74,1.06,7.79.29,2.05.53,3.73.71,5.03.19,1.3.33,2.3.44,2.98.1.68.2,1.23.28,1.65h.25c.12-.66.34-1.62.65-2.89.31-1.26.67-2.7,1.09-4.32.41-1.61.85-3.36,1.3-5.25.46-1.88.91-3.76,1.37-5.62.83-.46,1.65-.81,2.45-1.06s1.81-.37,3.01-.37c1.45,0,2.69.23,3.73.68,1.03.46,1.7,1.16,1.99,2.11.5,1.82.97,3.59,1.43,5.31.45,1.72.87,3.31,1.24,4.78.37,1.47.7,2.77.99,3.91.29,1.14.5,2.04.62,2.7h.31c.46-3.19.9-6.5,1.34-9.94.44-3.44.84-6.93,1.21-10.5.75-.45,1.53-.79,2.36-.99.83-.21,1.66-.31,2.48-.31,1.45,0,2.65.31,3.6.93.95.62,1.43,1.7,1.43,3.23,0,.66-.1,1.66-.31,2.98-.21,1.33-.48,2.82-.81,4.47-.33,1.66-.71,3.4-1.15,5.22-.43,1.82-.87,3.58-1.3,5.28-.44,1.7-.85,3.23-1.24,4.6-.39,1.37-.74,2.42-1.02,3.17-.58.5-1.47.9-2.67,1.21-1.2.31-2.48.47-3.85.47-3.48,0-5.53-.87-6.15-2.61-.25-.75-.56-1.69-.93-2.83-.37-1.14-.77-2.39-1.18-3.76-.41-1.37-.81-2.78-1.18-4.25-.37-1.47-.68-2.89-.93-4.25-.29,1.45-.64,2.95-1.06,4.5-.41,1.55-.84,3.06-1.27,4.53-.43,1.47-.84,2.82-1.21,4.04-.37,1.22-.66,2.2-.87,2.95Z"/>
        <path class="cls-7" d="m202.24,67.34c2.55-3.67,4.17-8.32,4.87-13.94.55-4.47.34-8.52-.64-12.13-.98-3.61-2.56-6.74-4.74-9.36-2.18-2.63-4.84-4.75-7.99-6.36-3.15-1.61-6.65-2.65-10.49-3.13-3.84-.47-7.49-.31-10.93.48-3.45.8-6.53,2.21-9.26,4.23-2.72,2.02-5,4.67-6.83,7.93-1.83,3.27-3.02,7.14-3.57,11.61-.55,4.42-.34,8.43.61,12.04.95,3.61,2.49,6.74,4.61,9.39,2.12,2.65,4.76,4.8,7.94,6.44,3.17,1.64,6.71,2.71,10.61,3.19l.69.08,3.35,3.99c2.58,3.11,5.19,5.58,7.82,7.38,2.63,1.81,5.26,2.88,7.9,3.2,2.75.34,5.07-.13,6.94-1.41,1.87-1.28,3.02-3.56,3.42-6.83.03-.23.06-.47.09-.73.03-.26.04-.56.03-.91-1.16-.49-2.4-1.04-3.73-1.64-1.32-.6-2.6-1.21-3.84-1.83-1.23-.62-2.41-1.23-3.53-1.83-1.12-.6-2.08-1.16-2.89-1.67,3.83-1.8,7.02-4.53,9.57-8.21Zm-10.62-15.85c-.64,5.22-2.19,8.99-4.63,11.31-2.44,2.32-5.47,3.26-9.08,2.81-3.56-.44-6.24-2.08-8.04-4.92-1.8-2.84-2.38-6.87-1.74-12.09.64-5.22,2.2-8.97,4.67-11.26,2.47-2.29,5.48-3.21,9.03-2.77,3.61.45,6.31,2.09,8.08,4.93,1.77,2.84,2.34,6.84,1.71,12Z"/>
      </g>
      <g id="QwQ-float">
        <path class="cls-1" d="m117.52,59.42c-3.46-1.45-7.03-2.75-10.66-3.91-.16-.74-.31-1.48-.45-2.23-.15-.78-.3-1.54-.43-2.27,3.69,1.12,7.34,2.39,10.89,3.8.07.48.13.92.19,1.35.17,1.22.33,2.31.46,3.26Z"/>
        <path class="cls-1" d="m128.17,59.96c-.19.81-.39,1.64-.62,2.48-.13.5-.27,1-.41,1.5-2.31-1.22-4.69-2.38-7.14-3.46.15-.59.3-1.21.47-1.86.17-.67.35-1.36.53-2.08,2.45,1.07,4.85,2.22,7.17,3.42Z"/>
        <path class="cls-1" d="m203.1,80.95c-7.89,1.95-14.25,3.21-20.38,3.41-.76-.8-1.52-1.65-2.27-2.55l-1.22-1.46c5.86.27,11.48-.6,18.19-2.15h.01c.54.28,1.1.56,1.66.84,1.24.62,2.51,1.23,3.84,1.83.06.03.12.05.17.08Z"/>
      </g>
      <g class="cls-8">
        <g>
          <rect class="cls-7" x="-6.45" y="-21.89" width="297.72" height="168.91"/>
          <path class="cls-3" d="m5.4,50.08c19.59-12.42,50.88-21.5,67.14-6.65s37.45,26.01,61.41,19.14,53.74-28.1,74.39-7.44,37.51,24.43,49.82,22.54,28.25-.82,28.25-.82l1.37,66.38L.08,142.62,5.4,50.08Z"/>
          <path class="cls-7" d="m20.55,92.5s45.23-1.06,55.82,5.12,16.75-7.02,43.97.77c32.35,9.25,27.23-5.24,49.22-5.89s33.61,16.43,65.96,5.94,47.05,27.93,47.05,27.93l.57,12.65-271.94-4.22,9.34-42.29Z"/>
        </g>
      </g>
      <g>
        <path class="cls-7" d="m230.49,37.28c.06.17.1.37.12.59.02.23.03.44.04.64.01.51-.04,1-.14,1.45-.1.46-.28.86-.53,1.21-.25.35-.58.63-.98.85-.41.22-.92.34-1.55.35s-1.19-.1-1.78-.34c-.59-.24-1.32-.6-2.18-1.06l-9.29-5.09c-.76-.95-1.16-2.22-1.19-3.81-.03-1.19.12-2.12.45-2.78.33-.66.81-1.18,1.46-1.57l11.58-7.09c1.4.34,2.36.82,2.87,1.45s.78,1.31.79,2.05c.02,1-.21,1.78-.69,2.34-.49.57-1.21,1.1-2.16,1.61l-7.42,3.96,10.62,5.23Z"/>
        <path class="cls-3" d="m238.17,46.84c-.4.07-.78.11-1.15.13-.37.02-.71.04-1.02.04-1.19.03-2.12-.21-2.77-.71-.65-.5-.99-1.32-1.02-2.45-.02-.77.08-1.55.29-2.33.21-.79.39-1.48.55-2.08l6.91-27.26c.43-.07.82-.11,1.19-.13.37-.02.71-.04,1.02-.04,1.14-.03,2.05.2,2.73.66.68.47,1.03,1.24,1.06,2.32.02.83-.08,1.61-.29,2.35-.21.75-.41,1.49-.59,2.23l-6.91,27.26Z"/>
        <path class="cls-7" d="m247.76,25.2c-.06-.17-.1-.37-.12-.59-.02-.23-.03-.44-.04-.64-.01-.51.03-1,.14-1.45.1-.46.28-.86.53-1.21.25-.35.58-.63.98-.85.41-.22.92-.34,1.55-.35s1.19.1,1.78.34c.59.24,1.32.6,2.18,1.06l9.29,5.09c.76.95,1.16,2.22,1.19,3.81.03,1.19-.12,2.12-.45,2.78-.33.66-.81,1.19-1.46,1.57l-11.58,7.09c-1.4-.34-2.36-.82-2.87-1.45-.51-.63-.78-1.31-.79-2.05-.02-1,.21-1.78.7-2.34.48-.57,1.21-1.1,2.16-1.61l7.42-3.96-10.62-5.23Z"/>
      </g>
      <g id="TS">
        <path id="TS_BG" class="cls-2" d="m28.46,51.83c4.26-1.11,6.38-1.67,8.23-1.27,1.62.35,3.09,1.21,4.19,2.45,1.25,1.41,1.81,3.54,2.92,7.79l1.59,6.08c1.11,4.26,1.67,6.38,1.27,8.23-.35,1.62-1.21,3.09-2.45,4.19-1.41,1.25-3.54,1.81-7.79,2.92l-6.08,1.59c-4.26,1.11-6.38,1.67-8.23,1.27-1.62-.35-3.09-1.21-4.19-2.45-1.25-1.41-1.81-3.54-2.92-7.79l-1.59-6.08c-1.11-4.26-1.67-6.38-1.27-8.23.35-1.62,1.21-3.09,2.45-4.19,1.41-1.25,3.54-1.81,7.79-2.92l6.08-1.59Z"/>
        <g>
          <path class="cls-5" d="m23.29,72.39c-.12-.11-.24-.27-.37-.47-.13-.21-.23-.43-.29-.68-.12-.46-.1-.82.05-1.08.15-.26.4-.43.73-.51l7.75-2.03c.12.11.24.27.37.47.13.21.23.43.29.68.12.46.1.82-.05,1.08-.15.26-.4.43-.73.51l-1.97.52,2.15,8.21c-.12.07-.32.16-.59.27-.27.11-.54.2-.81.27s-.52.11-.74.13c-.22.01-.41-.02-.58-.09-.17-.07-.32-.19-.44-.36-.12-.17-.22-.41-.3-.72l-1.8-6.89-2.67.7Z"/>
          <path class="cls-5" d="m37.63,72.92c-.57-.04-1.09-.1-1.56-.17-.47-.07-.9-.2-1.28-.38-.38-.18-.7-.43-.96-.74-.27-.32-.47-.74-.6-1.26-.26-1.01-.09-1.91.53-2.72.62-.81,1.63-1.39,3.02-1.76.51-.13.99-.22,1.45-.27.46-.04.86-.03,1.21.03.35.07.65.19.89.38.24.18.4.43.48.74s.08.59,0,.85c-.08.26-.21.49-.37.69-.3-.1-.69-.15-1.16-.16-.47,0-.97.05-1.49.19s-.9.32-1.11.53c-.21.21-.29.43-.23.66.05.18.16.3.34.37.18.07.44.12.77.13l1.02.06c1.21.06,2.18.29,2.92.69.74.39,1.24,1.07,1.49,2.01.26,1.01.08,1.93-.55,2.75-.63.83-1.72,1.45-3.26,1.85-.54.14-1.06.23-1.55.26-.49.03-.93.01-1.33-.07-.39-.08-.72-.22-.98-.43-.26-.2-.44-.47-.52-.8s-.07-.66.07-.96c.14-.3.31-.54.51-.73.4.17.86.29,1.39.36.53.06,1.08.02,1.65-.13s.97-.35,1.16-.59c.19-.24.25-.48.19-.71s-.2-.39-.43-.47c-.22-.07-.52-.13-.89-.16l-.81-.05Z"/>
        </g>
      </g>
    </g>
  </g>
</svg>